<svg width="1007" height="239" viewBox="0 0 1007 239" fill="none" xmlns="http://www.w3.org/2000/svg">
<path d="M271.776 90.2256H222.152L190.573 200H242.453L271.776 90.2256Z" fill="#B88E2F" fill-opacity="0.84"/>
<path d="M101.1 199.624L132.303 90.2256H183.806L153.731 199.624H101.1Z" fill="#C1942F" fill-opacity="0.84"/>
<path d="M183.806 90.2256H132.303L189.821 200H242.077L183.806 90.2256Z" fill="#B88E2F"/>
<path d="M51.0996 0H0.723694L100.724 200H154.483L51.0996 0Z" fill="#B88E2F"/>
<path d="M340.921 200L304.961 91.5H325.886L357.971 189.615H347.586L380.911 91.5H399.511L431.906 189.615H421.831L454.691 91.5H473.911L437.951 200H416.561L386.956 111.495H392.536L362.466 200H340.921ZM519.461 201.085C510.987 201.085 503.444 199.277 496.831 195.66C490.217 191.94 484.999 186.877 481.176 180.47C477.352 174.063 475.441 166.778 475.441 158.615C475.441 150.348 477.352 143.063 481.176 136.76C484.999 130.353 490.217 125.342 496.831 121.725C503.444 118.108 510.987 116.3 519.461 116.3C528.037 116.3 535.632 118.108 542.246 121.725C548.962 125.342 554.181 130.302 557.901 136.605C561.724 142.908 563.636 150.245 563.636 158.615C563.636 166.778 561.724 174.063 557.901 180.47C554.181 186.877 548.962 191.94 542.246 195.66C535.632 199.277 528.037 201.085 519.461 201.085ZM519.461 184.5C524.214 184.5 528.451 183.467 532.171 181.4C535.891 179.333 538.784 176.337 540.851 172.41C543.021 168.483 544.106 163.885 544.106 158.615C544.106 153.242 543.021 148.643 540.851 144.82C538.784 140.893 535.891 137.897 532.171 135.83C528.451 133.763 524.266 132.73 519.616 132.73C514.862 132.73 510.626 133.763 506.906 135.83C503.289 137.897 500.396 140.893 498.226 144.82C496.056 148.643 494.971 153.242 494.971 158.615C494.971 163.885 496.056 168.483 498.226 172.41C500.396 176.337 503.289 179.333 506.906 181.4C510.626 183.467 514.811 184.5 519.461 184.5ZM619.363 201.085C610.89 201.085 603.346 199.277 596.733 195.66C590.12 191.94 584.901 186.877 581.078 180.47C577.255 174.063 575.343 166.778 575.343 158.615C575.343 150.348 577.255 143.063 581.078 136.76C584.901 130.353 590.12 125.342 596.733 121.725C603.346 118.108 610.89 116.3 619.363 116.3C627.94 116.3 635.535 118.108 642.148 121.725C648.865 125.342 654.083 130.302 657.803 136.605C661.626 142.908 663.538 150.245 663.538 158.615C663.538 166.778 661.626 174.063 657.803 180.47C654.083 186.877 648.865 191.94 642.148 195.66C635.535 199.277 627.94 201.085 619.363 201.085ZM619.363 184.5C624.116 184.5 628.353 183.467 632.073 181.4C635.793 179.333 638.686 176.337 640.753 172.41C642.923 168.483 644.008 163.885 644.008 158.615C644.008 153.242 642.923 148.643 640.753 144.82C638.686 140.893 635.793 137.897 632.073 135.83C628.353 133.763 624.168 132.73 619.518 132.73C614.765 132.73 610.528 133.763 606.808 135.83C603.191 137.897 600.298 140.893 598.128 144.82C595.958 148.643 594.873 153.242 594.873 158.615C594.873 163.885 595.958 168.483 598.128 172.41C600.298 176.337 603.191 179.333 606.808 181.4C610.528 183.467 614.713 184.5 619.363 184.5ZM717.095 201.085C709.139 201.085 701.957 199.328 695.55 195.815C689.247 192.198 684.287 187.238 680.67 180.935C677.054 174.632 675.245 167.192 675.245 158.615C675.245 150.038 677.054 142.598 680.67 136.295C684.287 129.992 689.247 125.083 695.55 121.57C701.957 118.057 709.139 116.3 717.095 116.3C724.019 116.3 730.219 117.85 735.695 120.95C741.172 123.947 745.512 128.545 748.715 134.745C751.919 140.945 753.52 148.902 753.52 158.615C753.52 168.225 751.97 176.182 748.87 182.485C745.77 188.685 741.482 193.335 736.005 196.435C730.529 199.535 724.225 201.085 717.095 201.085ZM719.42 184.5C724.07 184.5 728.204 183.467 731.82 181.4C735.54 179.333 738.485 176.337 740.655 172.41C742.929 168.483 744.065 163.885 744.065 158.615C744.065 153.242 742.929 148.643 740.655 144.82C738.485 140.893 735.54 137.897 731.82 135.83C728.204 133.763 724.07 132.73 719.42 132.73C714.77 132.73 710.585 133.763 706.865 135.83C703.249 137.897 700.304 140.893 698.03 144.82C695.86 148.643 694.775 153.242 694.775 158.615C694.775 163.885 695.86 168.483 698.03 172.41C700.304 176.337 703.249 179.333 706.865 181.4C710.585 183.467 714.77 184.5 719.42 184.5ZM744.53 200V180.47L745.305 158.46L743.755 136.45V84.99H762.975V200H744.53ZM779.952 231.155C776.335 231.155 772.925 230.742 769.722 229.915C766.415 229.192 763.625 228.003 761.352 226.35L766.932 211.935C769.928 214.105 773.7 215.19 778.247 215.19C781.76 215.19 784.498 214.053 786.462 211.78C788.425 209.61 789.407 206.355 789.407 202.015V117.23H808.782V201.55C808.782 210.643 806.25 217.825 801.187 223.095C796.227 228.468 789.148 231.155 779.952 231.155ZM799.017 103.59C795.4 103.59 792.403 102.453 790.027 100.18C787.753 97.9067 786.617 95.1683 786.617 91.965C786.617 88.6583 787.753 85.92 790.027 83.75C792.403 81.4767 795.4 80.34 799.017 80.34C802.633 80.34 805.578 81.425 807.852 83.595C810.228 85.6617 811.417 88.2967 811.417 91.5C811.417 94.91 810.28 97.8033 808.007 100.18C805.733 102.453 802.737 103.59 799.017 103.59ZM873.094 201.085C863.898 201.085 855.838 199.277 848.914 195.66C842.094 191.94 836.773 186.877 832.949 180.47C829.229 174.063 827.369 166.778 827.369 158.615C827.369 150.348 829.178 143.063 832.794 136.76C836.514 130.353 841.578 125.342 847.984 121.725C854.494 118.108 861.883 116.3 870.149 116.3C878.209 116.3 885.391 118.057 891.694 121.57C897.998 125.083 902.958 130.043 906.574 136.45C910.191 142.857 912 150.4 912 159.08C912 159.907 911.948 160.837 911.844 161.87C911.844 162.903 911.793 163.885 911.689 164.815H842.714V151.95H901.459L893.864 155.98C893.968 151.227 892.986 147.042 890.919 143.425C888.853 139.808 886.011 136.967 882.394 134.9C878.881 132.833 874.799 131.8 870.149 131.8C865.396 131.8 861.211 132.833 857.594 134.9C854.081 136.967 851.291 139.86 849.224 143.58C847.261 147.197 846.279 151.485 846.279 156.445V159.545C846.279 164.505 847.416 168.897 849.689 172.72C851.963 176.543 855.166 179.488 859.299 181.555C863.433 183.622 868.186 184.655 873.559 184.655C878.209 184.655 882.394 183.932 886.114 182.485C889.834 181.038 893.141 178.765 896.034 175.665L906.419 187.6C902.699 191.94 897.998 195.298 892.314 197.675C886.734 199.948 880.328 201.085 873.094 201.085ZM935.917 231.155C931.887 231.155 927.857 230.483 923.827 229.14C919.797 227.797 916.438 225.937 913.752 223.56L921.502 209.3C923.465 211.057 925.687 212.452 928.167 213.485C930.647 214.518 933.178 215.035 935.762 215.035C939.275 215.035 942.117 214.157 944.287 212.4C946.457 210.643 948.472 207.698 950.332 203.565L955.137 192.715L956.687 190.39L987.997 117.23H1006.6L967.847 206.665C965.263 212.865 962.37 217.773 959.167 221.39C956.067 225.007 952.553 227.538 948.627 228.985C944.803 230.432 940.567 231.155 935.917 231.155ZM952.967 202.945L915.612 117.23H935.762L966.142 188.685L952.967 202.945Z" fill="black"/>
</svg>
