<svg width="943" height="189" viewBox="0 0 943 189" fill="none" xmlns="http://www.w3.org/2000/svg">
<path d="M221 40H171L139.573 150H191.453L221 40Z" fill="#B88E2F" fill-opacity="0.84"/>
<path d="M50.0997 149.624L81 40L132.806 40.2256L102.731 149.624H50.0997Z" fill="#C1942F" fill-opacity="0.84"/>
<path d="M133 40H81L138.821 150H191.077L133 40Z" fill="#B88E2F"/>
<path d="M49 40H0L49.7237 150H103.483L49 40Z" fill="#B88E2F"/>
<path d="M277.145 150L241.185 41.5H262.11L294.195 139.615H283.81L317.135 41.5H335.735L368.13 139.615H358.055L390.915 41.5H410.135L374.175 150H352.785L323.18 61.495H328.76L298.69 150H277.145ZM455.684 151.085C447.211 151.085 439.668 149.277 433.054 145.66C426.441 141.94 421.223 136.877 417.399 130.47C413.576 124.063 411.664 116.778 411.664 108.615C411.664 100.348 413.576 93.0633 417.399 86.76C421.223 80.3533 426.441 75.3417 433.054 71.725C439.668 68.1083 447.211 66.3 455.684 66.3C464.261 66.3 471.856 68.1083 478.469 71.725C485.186 75.3417 490.404 80.3017 494.124 86.605C497.948 92.9083 499.859 100.245 499.859 108.615C499.859 116.778 497.948 124.063 494.124 130.47C490.404 136.877 485.186 141.94 478.469 145.66C471.856 149.277 464.261 151.085 455.684 151.085ZM455.684 134.5C460.438 134.5 464.674 133.467 468.394 131.4C472.114 129.333 475.008 126.337 477.074 122.41C479.244 118.483 480.329 113.885 480.329 108.615C480.329 103.242 479.244 98.6433 477.074 94.82C475.008 90.8933 472.114 87.8967 468.394 85.83C464.674 83.7633 460.489 82.73 455.839 82.73C451.086 82.73 446.849 83.7633 443.129 85.83C439.513 87.8967 436.619 90.8933 434.449 94.82C432.279 98.6433 431.194 103.242 431.194 108.615C431.194 113.885 432.279 118.483 434.449 122.41C436.619 126.337 439.513 129.333 443.129 131.4C446.849 133.467 451.034 134.5 455.684 134.5ZM555.587 151.085C547.113 151.085 539.57 149.277 532.957 145.66C526.343 141.94 521.125 136.877 517.302 130.47C513.478 124.063 511.567 116.778 511.567 108.615C511.567 100.348 513.478 93.0633 517.302 86.76C521.125 80.3533 526.343 75.3417 532.957 71.725C539.57 68.1083 547.113 66.3 555.587 66.3C564.163 66.3 571.758 68.1083 578.372 71.725C585.088 75.3417 590.307 80.3017 594.027 86.605C597.85 92.9083 599.762 100.245 599.762 108.615C599.762 116.778 597.85 124.063 594.027 130.47C590.307 136.877 585.088 141.94 578.372 145.66C571.758 149.277 564.163 151.085 555.587 151.085ZM555.587 134.5C560.34 134.5 564.577 133.467 568.297 131.4C572.017 129.333 574.91 126.337 576.977 122.41C579.147 118.483 580.232 113.885 580.232 108.615C580.232 103.242 579.147 98.6433 576.977 94.82C574.91 90.8933 572.017 87.8967 568.297 85.83C564.577 83.7633 560.392 82.73 555.742 82.73C550.988 82.73 546.752 83.7633 543.032 85.83C539.415 87.8967 536.522 90.8933 534.352 94.82C532.182 98.6433 531.097 103.242 531.097 108.615C531.097 113.885 532.182 118.483 534.352 122.41C536.522 126.337 539.415 129.333 543.032 131.4C546.752 133.467 550.937 134.5 555.587 134.5ZM653.319 151.085C645.362 151.085 638.181 149.328 631.774 145.815C625.471 142.198 620.511 137.238 616.894 130.935C613.277 124.632 611.469 117.192 611.469 108.615C611.469 100.038 613.277 92.5983 616.894 86.295C620.511 79.9917 625.471 75.0833 631.774 71.57C638.181 68.0567 645.362 66.3 653.319 66.3C660.242 66.3 666.442 67.85 671.919 70.95C677.396 73.9467 681.736 78.545 684.939 84.745C688.142 90.945 689.744 98.9017 689.744 108.615C689.744 118.225 688.194 126.182 685.094 132.485C681.994 138.685 677.706 143.335 672.229 146.435C666.752 149.535 660.449 151.085 653.319 151.085ZM655.644 134.5C660.294 134.5 664.427 133.467 668.044 131.4C671.764 129.333 674.709 126.337 676.879 122.41C679.152 118.483 680.289 113.885 680.289 108.615C680.289 103.242 679.152 98.6433 676.879 94.82C674.709 90.8933 671.764 87.8967 668.044 85.83C664.427 83.7633 660.294 82.73 655.644 82.73C650.994 82.73 646.809 83.7633 643.089 85.83C639.472 87.8967 636.527 90.8933 634.254 94.82C632.084 98.6433 630.999 103.242 630.999 108.615C630.999 113.885 632.084 118.483 634.254 122.41C636.527 126.337 639.472 129.333 643.089 131.4C646.809 133.467 650.994 134.5 655.644 134.5ZM680.754 150V130.47L681.529 108.46L679.979 86.45V34.99H699.199V150H680.754ZM716.175 181.155C712.559 181.155 709.149 180.742 705.945 179.915C702.639 179.192 699.849 178.003 697.575 176.35L703.155 161.935C706.152 164.105 709.924 165.19 714.47 165.19C717.984 165.19 720.722 164.053 722.685 161.78C724.649 159.61 725.63 156.355 725.63 152.015V67.23H745.005V151.55C745.005 160.643 742.474 167.825 737.41 173.095C732.45 178.468 725.372 181.155 716.175 181.155ZM735.24 53.59C731.624 53.59 728.627 52.4533 726.25 50.18C723.977 47.9067 722.84 45.1683 722.84 41.965C722.84 38.6583 723.977 35.92 726.25 33.75C728.627 31.4767 731.624 30.34 735.24 30.34C738.857 30.34 741.802 31.425 744.075 33.595C746.452 35.6617 747.64 38.2967 747.64 41.5C747.64 44.91 746.504 47.8033 744.23 50.18C741.957 52.4533 738.96 53.59 735.24 53.59ZM809.318 151.085C800.121 151.085 792.061 149.277 785.138 145.66C778.318 141.94 772.996 136.877 769.173 130.47C765.453 124.063 763.593 116.778 763.593 108.615C763.593 100.348 765.401 93.0633 769.018 86.76C772.738 80.3533 777.801 75.3417 784.208 71.725C790.718 68.1083 798.106 66.3 806.373 66.3C814.433 66.3 821.615 68.0567 827.918 71.57C834.221 75.0833 839.181 80.0433 842.798 86.45C846.415 92.8567 848.223 100.4 848.223 109.08C848.223 109.907 848.171 110.837 848.068 111.87C848.068 112.903 848.016 113.885 847.913 114.815H778.938V101.95H837.683L830.088 105.98C830.191 101.227 829.21 97.0417 827.143 93.425C825.076 89.8083 822.235 86.9667 818.618 84.9C815.105 82.8333 811.023 81.8 806.373 81.8C801.62 81.8 797.435 82.8333 793.818 84.9C790.305 86.9667 787.515 89.86 785.448 93.58C783.485 97.1967 782.503 101.485 782.503 106.445V109.545C782.503 114.505 783.64 118.897 785.913 122.72C788.186 126.543 791.39 129.488 795.523 131.555C799.656 133.622 804.41 134.655 809.783 134.655C814.433 134.655 818.618 133.932 822.338 132.485C826.058 131.038 829.365 128.765 832.258 125.665L842.643 137.6C838.923 141.94 834.221 145.298 828.538 147.675C822.958 149.948 816.551 151.085 809.318 151.085ZM872.14 181.155C868.11 181.155 864.08 180.483 860.05 179.14C856.02 177.797 852.662 175.937 849.975 173.56L857.725 159.3C859.689 161.057 861.91 162.452 864.39 163.485C866.87 164.518 869.402 165.035 871.985 165.035C875.499 165.035 878.34 164.157 880.51 162.4C882.68 160.643 884.695 157.698 886.555 153.565L891.36 142.715L892.91 140.39L924.22 67.23H942.82L904.07 156.665C901.487 162.865 898.594 167.773 895.39 171.39C892.29 175.007 888.777 177.538 884.85 178.985C881.027 180.432 876.79 181.155 872.14 181.155ZM889.19 152.945L851.835 67.23H871.985L902.365 138.685L889.19 152.945Z" fill="black"/>
</svg>
